<svg width="800" height="600" viewBox="0 0 800 600" fill="none" xmlns="http://www.w3.org/2000/svg">
  <rect width="800" height="600" fill="#eef0e8"/>
  <text x="48" y="120" font-family="Arial, Helvetica, sans-serif" font-size="70" font-weight="600" letter-spacing="-3" fill="#222">Saham Rakyat</text>
  <text x="50" y="150" font-family="Arial, Helvetica, sans-serif" font-size="20" font-weight="500" letter-spacing="4" fill="#7a7a7a">INVESTMENT PLATFORM</text>
  <g fill="#222">
    <rect x="96" y="398" width="76" height="100" rx="6"/>
    <rect x="206" y="330" width="76" height="168" rx="6"/>
    <rect x="316" y="260" width="76" height="238" rx="6"/>
    <rect x="426" y="160" width="76" height="338" rx="6" fill="#222"/>
  </g>
  <g opacity="0.5" fill="#222">
    <rect x="426" y="160" width="76" height="338" rx="6"/>
    <rect x="426" y="160" width="76" height="338" rx="6" fill="url(#gl)" opacity="0.55"/>
  </g>
  <circle cx="704" cy="180" r="74" fill="none" stroke="#222" stroke-width="5"/>
  <circle cx="704" cy="180" r="74" fill="none" stroke="#22c55e" stroke-width="5" stroke-dasharray="290 465" stroke-linecap="round" transform="rotate(-90 704 180)"/>
  <text x="704" y="190" text-anchor="middle" font-family="Arial, Helvetica, sans-serif" font-size="34" font-weight="600" fill="#222">+3×</text>
  <text x="704" y="212" text-anchor="middle" font-family="Arial, Helvetica, sans-serif" font-size="16" font-weight="500" fill="#7a7a7a">retention</text>
  <defs>
    <linearGradient id="gl" x1="0" y1="0" x2="1" y2="0"><stop offset="0" stop-color="#22c55e"/><stop offset="1" stop-color="#22c55e"/></linearGradient>
  </defs>
  <path d="M96 540 H704" stroke="#222" stroke-width="3"/>
  <text x="96" y="584" font-family="Arial, Helvetica, sans-serif" font-size="22" font-weight="600" fill="#222">WCAG AA · onboarding rebuilt</text>
</svg>
